<?xml version="1.0" standalone="no"?>
<!DOCTYPE svg PUBLIC "-//W3C//DTD SVG 20010904//EN"
 "http://www.w3.org/TR/2001/REC-SVG-20010904/DTD/svg10.dtd">
<svg version="1.0" xmlns="http://www.w3.org/2000/svg"
 width="192.000000pt" height="192.000000pt" viewBox="0 0 192.000000 192.000000"
 preserveAspectRatio="xMidYMid meet">
<metadata>
Created by potrace 1.11, written by Peter Selinger 2001-2013
</metadata>
<g transform="translate(0.000000,192.000000) scale(0.100000,-0.100000)"
fill="#000000" stroke="none">
<path d="M935 1831 c-72 -33 -115 -100 -115 -177 l0 -33 293 4 c265 3 342 7
417 20 14 2 43 7 65 10 22 4 48 8 57 11 9 3 25 7 35 9 38 7 179 47 206 57 18
7 27 18 27 34 l0 23 -67 -20 c-95 -27 -326 -77 -398 -85 -33 -4 -93 -7 -133
-7 -80 1 -112 15 -136 61 -8 15 -27 39 -43 53 -64 61 -135 74 -208 40z"/>
<path d="M1077 1314 c-1 -1 -15 -4 -32 -7 -16 -3 -84 -17 -150 -31 -66 -15
-136 -30 -155 -34 -32 -7 -35 -11 -35 -42 0 -37 -4 -36 159 -64 42 -8 42 -7
21 -106 -3 -14 -8 -38 -11 -55 -3 -16 -12 -64 -20 -105 -9 -41 -18 -84 -20
-95 -2 -11 -8 -43 -14 -71 -6 -28 -13 -64 -16 -80 -3 -16 -17 -85 -31 -154
-34 -164 -36 -287 -7 -327 11 -15 34 -35 50 -42 34 -18 144 -22 194 -8 19 5
44 11 55 12 25 4 131 39 167 55 22 11 27 19 26 50 l0 37 -72 -18 c-163 -43
-246 -7 -233 102 5 37 41 231 92 489 5 25 37 193 41 220 3 14 14 70 25 125 10
55 21 110 23 121 4 18 -1 23 -25 26 -16 3 -30 4 -32 2z"/>
</g>
</svg>
